# xmcd CD database file
# Copyright (C) 1997 Ti Kan
#
# Track frame offsets:
#  195
#  9929
#  19439
#  29667
#  38013
#  53139
#  66278
#  77677
#  89706
#
# Disc length: 1382 seconds
#
# Revision: 2
# Processed by: cddbd v1.4PL0 Copyright (c) Steve Scherf et al.
# Submitted via: Gronk 1.4
#
DISCID=70056409
DTITLE=Anne Murray - Both Sides Now
DYEAR=1900
DGENRE=country
TTITLE0=It's Over
TTITLE1=Some Birds
TTITLE2=For Baby
TTITLE3=Paths Of Victory
TTITLE4=Both Sides Now
TTITLE5=Buffalo In The Park
TTITLE6=Last Thing On My Mind
TTITLE7=All The Time
TTITLE8=David's Song
EXTD=Previously released material from Anne's Both Sides Now album origin
EXTD=ally released in England on the Showcase Label for Castle Communicat
EXTD=ions, Inc. 1985
EXTT0=
EXTT1=
EXTT2=
EXTT3=
EXTT4=
EXTT5=
EXTT6=
EXTT7=
EXTT8=
PLAYORDER=
